<svg id="Filled" height="512" viewBox="0 0 512 512" width="512" xmlns="http://www.w3.org/2000/svg"><circle cx="256" cy="152" fill="#3dc285" r="112"/><path d="m24 472 80-144s16-40 64-40 64 32 64 32h48a24 24 0 0 1 24 24l128-88s32-22.411 56 0l-204.663 189.5a32 32 0 0 1 -26.607 8.148l-65.675-10.1a32 32 0 0 0 -33.487 17.317l-5.568 11.135z" fill="#f0c6a4"/><path d="m256 272a120 120 0 1 0 -120-120 120.136 120.136 0 0 0 120 120zm0-224a104 104 0 1 1 -104 104 104.118 104.118 0 0 1 104-104z"/><path d="m427.468 249.408-118.335 81.355a32.046 32.046 0 0 0 -29.133-18.763h-43.549c-6.724-9.738-26.667-32-68.451-32-50.3 0-68.915 39.186-71.2 44.5l-79.793 143.615a8 8 0 0 0 6.993 11.885h128a8 8 0 0 0 7.155-4.422l5.569-11.137a23.928 23.928 0 0 1 25.115-12.987l65.675 10.1a39.794 39.794 0 0 0 33.258-10.185l204.664-189.5a8 8 0 0 0 .024-11.717c-22.734-21.227-53.146-9.742-65.992-.744zm-149.568 190.225a23.871 23.871 0 0 1 -19.955 6.111l-65.674-10.1a39.881 39.881 0 0 0 -41.859 21.646l-3.356 6.71h-109.456l73.4-132.115a7.881 7.881 0 0 0 .435-.914c.132-.349 14.465-34.971 56.565-34.971 42.074 0 56.285 26.5 56.845 27.578a8 8 0 0 0 7.155 4.422h48a16 16 0 0 1 0 32h-96a8 8 0 0 0 0 16h96a32.044 32.044 0 0 0 31.687-27.577l124.9-85.87a56.943 56.943 0 0 1 16.386-7.2c8.42-2.145 15.9-1.641 22.345 1.489z"/><path d="m225.344 188.438a8 8 0 0 0 5.868 3.523c.264.026.526.039.789.039a8 8 0 0 0 5.656-2.343l64-64a8 8 0 0 0 -11.314-11.314l-57.1 57.1-10.587-15.881a8 8 0 1 0 -13.312 8.876z"/></svg>