<?xml version="1.0" encoding="iso-8859-1"?>
<!-- Generator: Adobe Illustrator 19.0.0, SVG Export Plug-In . SVG Version: 6.00 Build 0)  -->
<svg version="1.1" id="Capa_1" xmlns="http://www.w3.org/2000/svg" xmlns:xlink="http://www.w3.org/1999/xlink" x="0px" y="0px"
	 viewBox="0 0 512 512" style="enable-background:new 0 0 512 512;" xml:space="preserve">
<path style="fill:#0082FF;" d="M451.587,30.14V0H230.934v30.293h-61.18V431.05h0.185h341.824V30.344L451.587,30.14z"/>
<polygon style="fill:#005FE4;" points="451.587,30.14 451.587,0 340.813,0 340.813,431.05 511.76,431.05 511.76,30.344 "/>
<path style="fill:#FF641A;" d="M125.613,512c0,0-40.669-59.91-68.222-108.047C18.933,336.761,0.237,290.332,0.237,262.014
	c0-69.133,56.244-125.377,125.377-125.377c69.134,0,125.378,56.244,125.378,125.377c0,28.318-18.695,74.747-57.154,141.938
	C166.285,452.089,125.613,512,125.613,512z"/>
<path style="fill:#F03800;" d="M125.613,136.637c-0.042,0-0.084,0.001-0.127,0.001v375.173l0.127,0.188
	c0,0,40.67-59.91,68.222-108.047c38.46-67.19,57.154-113.619,57.154-141.938C250.992,192.881,194.747,136.637,125.613,136.637z"/>
<rect x="327.22" y="338.77" style="fill:#005FE4;" width="30.09" height="92.27"/>
<rect x="267.049" y="217.2" style="fill:#FFDA2D;" width="58.17" height="30.09"/>
<g>
	<rect x="267.049" y="277.38" style="fill:#005FE4;" width="58.17" height="30.09"/>
	<rect x="267.049" y="98.23" style="fill:#005FE4;" width="58.17" height="30.09"/>
	<rect x="267.049" y="158.4" style="fill:#005FE4;" width="58.17" height="30.09"/>
</g>
<rect id="SVGCleanerId_0" x="359.32" y="217.2" style="fill:#00317E;" width="58.17" height="30.09"/>
<rect id="SVGCleanerId_1" x="359.32" y="277.38" style="fill:#00317E;" width="58.17" height="30.09"/>
<rect x="359.32" y="98.23" style="fill:#FFDA2D;" width="58.17" height="30.09"/>
<rect id="SVGCleanerId_2" x="359.32" y="158.4" style="fill:#00317E;" width="58.17" height="30.09"/>
<rect x="340.81" y="338.77" style="fill:#00317E;" width="16.5" height="92.27"/>
<g>
	<rect id="SVGCleanerId_0_1_" x="359.32" y="217.2" style="fill:#00317E;" width="58.17" height="30.09"/>
</g>
<g>
	<rect id="SVGCleanerId_1_1_" x="359.32" y="277.38" style="fill:#00317E;" width="58.17" height="30.09"/>
</g>
<rect x="359.32" y="98.23" style="fill:#FDBF00;" width="58.17" height="30.09"/>
<g>
	<rect id="SVGCleanerId_2_1_" x="359.32" y="158.4" style="fill:#00317E;" width="58.17" height="30.09"/>
</g>
<path style="fill:#FFDA2D;" d="M125.613,322.192c-33.182,0-60.178-26.996-60.178-60.178s26.996-60.178,60.178-60.178
	s60.178,26.996,60.178,60.178S158.796,322.192,125.613,322.192z"/>
<path style="fill:#FDBF00;" d="M125.613,201.836c-0.043,0-0.084,0.003-0.127,0.003v120.35c0.042,0,0.084,0.003,0.127,0.003
	c33.182,0,60.178-26.996,60.178-60.178S158.796,201.836,125.613,201.836z"/>
<g>
</g>
<g>
</g>
<g>
</g>
<g>
</g>
<g>
</g>
<g>
</g>
<g>
</g>
<g>
</g>
<g>
</g>
<g>
</g>
<g>
</g>
<g>
</g>
<g>
</g>
<g>
</g>
<g>
</g>
</svg>
